<svg viewBox="0 0 800 600" height="600" width="800" xmlns="http://www.w3.org/2000/svg" version="1.1"><rect x="0" y="0" width="800" height="600" fill="#000000ff"></rect><g transform-origin="400 300" transform="scale(-1, 1)"><linearGradient id="linear-gradient-r1"><stop offset="0%" stop-color="#d12846ff" stop-opacity="100%"></stop><stop offset="100%" stop-color="#972384ff" stop-opacity="100%"></stop></linearGradient><filter id="shadow-r1" x="-20%" width="150%" y="-20%" height="150%"><feDropShadow dx="13" dy="10" stdDeviation="16" flood-color="#00000061"></feDropShadow></filter><path d="M0 0 0,616.1019068493042 C 21.619217461006098,606.5007429404494 66.39512094963963,584.4155023195004 108.09608730503048,568.0960873050304 C 149.79705366042134,551.7766722905604 178.315899358845,557.3158993588451 208.50483177695423,534.5048317769542 C 238.69376419506347,511.69376419506347 238.42506708662646,485.6250670866265 259.0407493955766,454.0407493955766 C 279.65643170452677,422.4564317045267 298.3898511542162,415.3898511542162 311.58324332170497,376.58324332170497 C 324.7766354891937,337.7766354891937 307.22136915583786,294.22136915583786 325.0077102330203,260.0077102330203 C 342.79405131020275,225.79405131020275 373.16199713105647,230.36199713105648 400.5149487076172,205.5149487076172 C 427.8679002841779,180.66790028417793 432.6354848230568,159.6354848230568 461.772468115824,135.77246811582395 C 490.90945140859117,111.90945140859111 518.0148507288968,113.3543587946178 546.199865171453,86.19986517145298 C 574.3848796140093,59.04537154828819 591.3980052971747,17.239973034290596 602.6975403286051,0 L0 0Z" fill="none" stroke-linecap="round" filter="url(#shadow-r1)" stroke-width="1" style="transition: all 0.4s cubic-bezier(0.16, 1, 0.3, 1) 0s; fill: url(&quot;#linear-gradient-r1&quot;);"></path><path d="M0 0 0,563.9187182637863 C 18.822274226912608,552.7572488379417 64.04707391295427,532.0308175657116 94.11137113456304,508.11137113456306 C 124.17566835617181,484.19192470341454 134.94935128643021,476.7493512864303 150.32148610804384,444.32148610804387 C 165.69362092965747,411.8936209296575 151.83448623473137,374.03448623473133 170.9720452426312,345.97204524263117 C 190.10960425053102,317.909604250531 218.63661203970355,323.2366120397036 246.00928114754302,304.00928114754305 C 273.3819502553825,284.7819502553825 279.0013244007869,267.60132440078695 307.8353907818285,249.83539078182852 C 336.66945716287006,232.0694571628701 363.137738098499,235.33773809849905 390.17961305275094,215.17961305275094 C 417.22148800700285,195.02148800700283 426.7010333559941,180.50103335599414 443.0447655530879,149.04476555308793 C 459.3884977501817,117.5884977501817 451.5896160827251,87.7072271488374 471.8982740382198,57.898274038219824 C 492.20693199371453,28.08932092760224 530.0500990720932,11.579654807643967 544.5880553305615,0 L0 0Z" fill="none" stroke-linecap="round" filter="url(#shadow-r1)" stroke-width="1" style="transition: all 0.4s cubic-bezier(0.16, 1, 0.3, 1) 0s; fill: url(&quot;#linear-gradient-r1&quot;);"></path><path d="M0 0 0,481.23583733662963 C 5.787276050448416,464.1759459197521 8.235657534748317,419.2828250020742 28.93638025224209,395.9363802522421 C 49.637102969735864,372.58993550240996 76.11122694835066,379.3112269483507 103.50361358746886,364.50361358746886 C 130.89600022658706,349.69600022658705 137.56716397851704,335.36716397851706 165.89831344783306,321.89831344783306 C 194.22946291714908,308.42946291714907 218.7536308452487,312.3536308452487 245.1593609340489,297.1593609340489 C 271.56509102284906,281.9650910228491 281.1484214618802,270.7484214618802 297.926963891834,245.92696389183402 C 314.7055063217878,221.10550632178783 309.1763034723699,194.97630347236992 329.05207308381796,173.05207308381796 C 348.927842695266,151.127842695266 376.94889627099036,158.14889627099038 397.30581194907427,136.30581194907427 C 417.6627276271582,114.46272762715816 416.8145496174693,91.0978138640523 430.83665147423744,63.83665147423744 C 444.8587533310056,36.575489084422586 460.10038728117945,12.767330294847492 467.4163212329149,0 L0 0Z" fill="none" stroke-linecap="round" filter="url(#shadow-r1)" stroke-width="1" style="transition: all 0.4s cubic-bezier(0.16, 1, 0.3, 1) 0s; fill: url(&quot;#linear-gradient-r1&quot;);"></path></g><g transform-origin="400 300" transform="scale(-1, -1)"><linearGradient id="linear-gradient-r1"><stop offset="0%" stop-color="#d12846ff" stop-opacity="100%"></stop><stop offset="100%" stop-color="#972384ff" stop-opacity="100%"></stop></linearGradient><filter id="shadow-r1" x="-20%" width="150%" y="-20%" height="150%"><feDropShadow dx="13" dy="10" stdDeviation="16" flood-color="#00000061"></feDropShadow></filter><path d="M0 0 0,627.5028990661725 C 21.008149879115322,615.0104691320533 71.32410073123562,591.6246805444702 105.04074939557661,565.0407493955767 C 138.75739805991762,538.4568182466832 151.38985115421627,530.3898511542162 168.583243321705,494.58324332170497 C 185.77663548919372,458.7766354891937 169.82136915583786,417.0213691558379 191.00771023302028,386.0077102330203 C 212.19405131020272,354.99405131020274 243.96199713105642,360.9619971310564 274.5149487076172,339.5149487076172 C 305.06790028417794,318.06790028417794 311.6354848230568,298.63548482305686 343.772468115824,278.772468115824 C 375.90945140859117,258.90945140859117 405.3218453517494,262.52184535174945 435.199865171453,240.19986517145298 C 465.07788499115657,217.87788499115655 475.2536452501081,202.2536452501081 493.16256721434183,167.16256721434183 C 511.0714891785756,132.07148917857558 502.1784637371544,98.17698843549007 524.7444749926217,64.74447499262169 C 547.310486248089,31.311961549753313 589.7429937918671,12.948894998524338 605.9926234916784,0 L0 0Z" fill="none" stroke-linecap="round" filter="url(#shadow-r1)" stroke-width="1" style="transition: all 0.4s cubic-bezier(0.16, 1, 0.3, 1) 0s; fill: url(&quot;#linear-gradient-r1&quot;);"></path><path d="M0 0 0,522.4055686885258 C 9.967078156365702,510.69153310718633 20.19946817127832,479.88058190898346 49.83539078182851,463.8353907818285 C 79.4713133923787,447.79019965467353 114.93773809849905,456.73773809849905 148.17961305275094,442.17961305275094 C 181.42148800700284,427.6214880070028 194.10103335599416,416.30103335599415 216.04476555308793,391.0447655530879 C 237.98849775018172,365.7884977501817 232.9112087053169,337.5112087053169 257.8982740382198,315.8982740382198 C 282.8853393711227,294.28533937112275 315.4982351720954,304.09823517209543 340.9800922176025,282.9800922176025 C 366.46194926310955,261.8619492631095 369.831195912743,242.031195912743 385.3075592657551,210.30755926575512 C 400.78392261876724,178.58392261876725 394.85392726503005,148.65392726503003 418.3619089826631,124.36190898266311 C 441.8698907002962,100.06989070029618 476.40308344722104,113.71984965045317 502.84746785392053,88.84746785392053 C 529.29185226062,63.97508605738791 541.0365583837125,17.769493570784107 550.5838310161605,0 L0 0Z" fill="none" stroke-linecap="round" filter="url(#shadow-r1)" stroke-width="1" style="transition: all 0.4s cubic-bezier(0.16, 1, 0.3, 1) 0s; fill: url(&quot;#linear-gradient-r1&quot;);"></path><path d="M0 0 0,469.8312438502908 C 14.661162389814857,463.9261574700475 47.93848165422678,456.70473042428495 73.30581194907427,440.30581194907427 C 98.67314224392176,423.9068934738636 107.69237345308065,410.89237345308067 126.83665147423744,387.83665147423744 C 145.98092949539424,364.7809294953942 143.29220903366803,341.09220903366804 169.0272020548582,325.0272020548582 C 194.76219507604839,308.9621950760484 227.08265225440263,320.6826522544026 255.51161658018827,307.5116165801883 C 283.9405809059739,294.3405809059739 294.7037551879883,284.30375518798826 311.1720236837864,259.1720236837864 C 327.6402921795845,234.0402921795845 328.75065628811717,214.55065628811718 337.85295905917883,181.85295905917883 C 346.9552618302405,149.15526183024048 333.21235875487326,114.41235875487328 356.6835375390947,95.68353753909469 C 380.1547163233161,76.95471632331609 431.1955647610128,107.34556048810484 455.2088529802859,88.20885298028588 C 479.22214119955896,69.07214547246694 472.44175350442526,17.641770596057178 476.74997863546014,0 L0 0Z" fill="none" stroke-linecap="round" filter="url(#shadow-r1)" stroke-width="1" style="transition: all 0.4s cubic-bezier(0.16, 1, 0.3, 1) 0s; fill: url(&quot;#linear-gradient-r1&quot;);"></path></g></svg>