<svg viewBox="0 0 800 600" height="600" width="800" xmlns="http://www.w3.org/2000/svg" version="1.1"><rect x="0" y="0" width="800" height="600" fill="#131213ff"></rect><g transform-origin="400 300" transform="scale(-1, 1)"><linearGradient id="linear-gradient-rd"><stop offset="0%" stop-color="#b50c5eff" stop-opacity="100%"></stop><stop offset="100%" stop-color="#3f0731ff" stop-opacity="100%"></stop></linearGradient><filter id="shadow-rd" x="-20%" width="150%" y="-20%" height="150%"><feDropShadow dx="0" dy="0" stdDeviation="10" flood-color="#00000061"></feDropShadow></filter><path d="M0 0 0,630.2038136986084 C 11.167686984402438,624.0433481350665 258.5117880679046,488.59994061584894 279.19217461006093,476.19217461006093 C 299.87256115221726,463.7844086042729 503.1833945673232,339.0573505383109 517.0096635539085,320.00966355390847 C 530.8359325404937,300.961976569506 620.5353298458606,12.800386542156339 624.8488992746919,0 L0 0Z" fill="none" stroke-linecap="round" filter="url(#shadow-rd)" stroke-width="1" style="transition: all 0.4s cubic-bezier(0.16, 1, 0.3, 1) 0s; fill: url(&quot;#linear-gradient-rd&quot;);"></path></g><g transform-origin="400 300" transform="scale(-1, -1)"><linearGradient id="linear-gradient-rd"><stop offset="0%" stop-color="#b50c5eff" stop-opacity="100%"></stop><stop offset="100%" stop-color="#3f0731ff" stop-opacity="100%"></stop></linearGradient><filter id="shadow-rd" x="-20%" width="150%" y="-20%" height="150%"><feDropShadow dx="0" dy="0" stdDeviation="10" flood-color="#00000061"></feDropShadow></filter><path d="M0 0 0,653.005798132345 C 10.923259951646129,645.6888261586973 255.59483932541684,486.59507125071065 273.08149879115325,470.08149879115325 C 290.56815825688966,453.56792633159586 426.36137650387116,258.9697465950561 437.16648664341,240.16648664340997 C 447.97159678294884,221.36322669176383 538.9675416541758,9.6066594657364 543.2092522796244,0 L0 0Z" fill="none" stroke-linecap="round" filter="url(#shadow-rd)" stroke-width="1" style="transition: all 0.4s cubic-bezier(0.16, 1, 0.3, 1) 0s; fill: url(&quot;#linear-gradient-rd&quot;);"></path></g></svg>