<svg viewBox="0 0 800 600" height="600" width="800" xmlns="http://www.w3.org/2000/svg" version="1.1"><rect x="0" y="0" width="800" height="600" fill="#000000ff"></rect><g transform-origin="400 300" transform="scale(-1, 1)"><linearGradient id="linear-gradient-r1"><stop offset="0%" stop-color="#d12846ff" stop-opacity="100%"></stop><stop offset="100%" stop-color="#972384ff" stop-opacity="100%"></stop></linearGradient><filter id="shadow-r1" x="-20%" width="150%" y="-20%" height="150%"><feDropShadow dx="13" dy="10" stdDeviation="16" flood-color="#00000061"></feDropShadow></filter><path d="M0 0 0,716.3975661038421 C 25.138624954658248,705.656677837732 77.20828017399958,681.2877933947681 125.69312477329125,662.6931247732913 C 174.17796937258294,644.0984561518145 207.3347666963314,650.1347666963314 242.4242229964584,623.4242229964584 C 277.51367929658545,596.7136792965854 277.02449661235636,566.0244966123563 301.1404062739263,529.1404062739263 C 325.2563159354963,492.2563159354962 347.42540831885617,484.2254083188561 363.00377130430815,439.00377130430815 C 378.5821342897602,393.78213428976017 358.2527548323696,343.0527548323696 379.03222120118636,303.03222120118636 C 399.81168757000313,263.0116875700031 434.9372059663447,267.9372059663447 466.9011031483921,238.90110314839208 C 498.8650003304395,209.86500033043944 504.7854474686707,185.5854474686707 538.8517071114233,157.85170711142322 C 572.9179667541757,130.11796675417574 604.8405241033684,131.8027427844393 637.2324013621546,100.23240136215463 C 669.6242786209409,68.66205993986998 688.0953549967147,20.04648027243093 700.8110934053548,0 L0 0Z" fill="none" stroke-linecap="round" filter="url(#shadow-r1)" stroke-width="1" style="transition: all 0.4s cubic-bezier(0.16, 1, 0.3, 1) 0s; fill: url(&quot;#linear-gradient-r1&quot;);"></path><path d="M0 0 0,666.0703529954887 C 22.242205602582544,653.2984879989735 75.46262519478333,630.0766957938811 111.21102801291272,602.2110280129127 C 146.9594308310421,574.3453602319444 160.3849084510701,564.98490845107 178.742014090647,526.742014090647 C 197.0991197302239,488.4991197302239 180.26587191126308,444.0658719112631 202.99655621079728,410.9965562107973 C 225.72724051033146,377.92724051033144 259.81182087499184,384.2118208749918 292.3954355883179,361.3954355883179 C 324.979050301644,338.57905030164403 331.7512870464008,318.15128704640085 365.91462977742776,296.91462977742776 C 400.0779725084547,275.6779725084547 431.34827106273735,279.1482710627373 463.2121492434526,255.2121492434526 C 495.0760274241678,231.27602742416784 505.98883607112805,214.58883607112801 525.234020681004,177.23402068100404 C 544.47920529088,139.87920529088007 535.8372729701689,103.88487642903347 559.4380722928327,68.43807229283266 C 583.0388716154964,32.99126815663185 626.478028294025,13.687614458566536 643.2380172943231,0 L0 0Z" fill="none" stroke-linecap="round" filter="url(#shadow-r1)" stroke-width="1" style="transition: all 0.4s cubic-bezier(0.16, 1, 0.3, 1) 0s; fill: url(&quot;#linear-gradient-r1&quot;);"></path><path d="M0 0 0,579.4881541261915 C 6.992178244081635,558.9827015450348 9.982937614759432,505.08056843999776 34.96089122040818,476.9608912204082 C 59.93884482605693,448.84121400081864 91.88643578363894,456.6864357836389 124.88976802824376,438.88976802824374 C 157.89310027284859,421.0931002728486 165.71712662413094,404.11712662413095 199.9775524434323,387.97755244343233 C 234.23797826273366,371.8379782627337 264.36416380948697,376.36416380948697 296.19189712475054,358.19189712475054 C 328.0196304400141,340.0196304400141 339.0362241770141,327.0362241770141 359.11621901975013,297.11621901975013 C 379.19621386248616,267.19621386248616 372.73729876464546,235.13729876464544 396.5918713384308,208.5918713384308 C 420.4464439122161,182.04644391221615 453.9101292596509,190.71012925965093 478.3890818886769,164.38908188867694 C 502.86803451770294,138.06803451770296 502.0950201643693,109.86445086129632 518.9866344835609,76.98663448356092 C 535.8782488027525,44.10881810582553 554.0750496844203,15.397326896712187 562.8471534846351,0 L0 0Z" fill="none" stroke-linecap="round" filter="url(#shadow-r1)" stroke-width="1" style="transition: all 0.4s cubic-bezier(0.16, 1, 0.3, 1) 0s; fill: url(&quot;#linear-gradient-r1&quot;);"></path></g><g transform-origin="400 300" transform="scale(-1, -1)"><linearGradient id="linear-gradient-r1"><stop offset="0%" stop-color="#d12846ff" stop-opacity="100%"></stop><stop offset="100%" stop-color="#972384ff" stop-opacity="100%"></stop></linearGradient><filter id="shadow-r1" x="-20%" width="150%" y="-20%" height="150%"><feDropShadow dx="13" dy="10" stdDeviation="16" flood-color="#00000061"></feDropShadow></filter><path d="M0 0 0,729.654533797875 C 24.42808125478526,715.5517082930853 82.93965201306469,689.6705587726397 122.1404062739263,659.1404062739263 C 161.34116053478795,628.6102537752129 176.0254083188561,618.825408318856 196.00377130430812,577.0037713043081 C 215.98213428976013,535.1821342897601 197.2527548323696,486.25275483236953 222.0322212011864,450.03222120118636 C 246.8116875700032,413.8116875700032 284.13720596634477,420.9372059663448 319.9011031483921,395.9011031483921 C 355.66500033043945,370.8650003304395 363.3854474686707,348.1854474686707 400.8517071114232,324.8517071114232 C 438.3179667541757,301.5179667541757 472.3323783159877,305.3323783159877 507.23240136215463,279.23240136215463 C 542.1324244083216,253.13242440832158 554.341447965242,235.14144796524198 575.351822342258,194.35182234225795 C 596.3621967192739,153.5621967192739 586.4261206245981,114.1546377156861 612.2842732472345,75.28427324723452 C 638.142425869871,36.41390877878293 686.1709230137989,15.05685464944691 704.64258545544,0 L0 0Z" fill="none" stroke-linecap="round" filter="url(#shadow-r1)" stroke-width="1" style="transition: all 0.4s cubic-bezier(0.16, 1, 0.3, 1) 0s; fill: url(&quot;#linear-gradient-r1&quot;);"></path><path d="M0 0 0,617.0372613529908 C 11.782925955485553,603.6127350378781 23.67219992873725,568.4796521993354 58.91462977742776,549.9146297774278 C 94.15705962611828,531.3496073555201 136.74827106273733,541.3482710627374 176.2121492434526,524.2121492434526 C 215.67602742416784,507.0760274241678 230.18883607112804,493.98883607112805 256.23402068100404,464.23402068100404 C 282.27920529088004,434.47920529088003 276.6722039975925,401.07220399759245 306.43807229283266,375.43807229283266 C 336.2039405880729,349.80394058807286 374.8594681607559,361.25946816075594 405.0633621572051,336.0633621572051 C 435.26725615365433,310.8672561536543 439.25422215941364,287.0542221594136 457.4575422750786,249.4575422750786 C 475.66086239074355,211.86086239074356 468.37275327607057,176.9727532760706 496.07996273553,148.07996273553 C 523.7871721949894,119.18717219498939 565.1456013359967,134.60958211948164 595.9935895723756,104.99358957237564 C 626.8415778087546,75.37759702526964 639.4546410484147,20.998717914475137 650.3199039174244,0 L0 0Z" fill="none" stroke-linecap="round" filter="url(#shadow-r1)" stroke-width="1" style="transition: all 0.4s cubic-bezier(0.16, 1, 0.3, 1) 0s; fill: url(&quot;#linear-gradient-r1&quot;);"></path><path d="M0 0 0,565.7551228030585 C 17.677816377735386,558.6819146201822 57.79175499196474,550.1427795525765 88.38908188867693,530.389081888677 C 118.98640878538912,510.63538422477745 129.91539969975128,494.7153996997513 152.98663448356092,466.9866344835609 C 176.05786926737056,439.25786926737055 172.61103504470861,411.0110350447086 203.7452558077251,391.7452558077251 C 234.8794765707416,372.47947657074155 274.39369375634317,386.39369375634317 308.6577382986434,370.6577382986434 C 342.9217828409436,354.9217828409436 355.3591052055359,343.3591052055359 375.06547851922613,313.06547851922613 C 394.77185183291635,282.77185183291635 396.30808194694106,258.7080819469411 407.1896048670945,219.18960486709452 C 418.0711277872479,179.6711277872479 401.2440486673265,138.0440486673266 429.47309311999317,115.4730931199932 C 457.7021375726598,92.90213757265981 519.4121592330529,129.42944575442624 548.3348271304276,106.33482713042758 C 577.2574950278023,83.24020850642894 568.9361115115787,21.266965426085516 574.0864326068665,0 L0 0Z" fill="none" stroke-linecap="round" filter="url(#shadow-r1)" stroke-width="1" style="transition: all 0.4s cubic-bezier(0.16, 1, 0.3, 1) 0s; fill: url(&quot;#linear-gradient-r1&quot;);"></path></g></svg>