<svg viewBox="0 0 800 600" height="600" width="800" xmlns="http://www.w3.org/2000/svg" version="1.1"><rect x="0" y="0" width="800" height="600" fill="#000000ff"></rect><g transform-origin="400 300" transform="scale(-1, 1)"><linearGradient id="linear-gradient-r1"><stop offset="0%" stop-color="#891231ff" stop-opacity="100%"></stop><stop offset="100%" stop-color="#972375ff" stop-opacity="100%"></stop></linearGradient><filter id="shadow-r1" x="-20%" width="150%" y="-20%" height="150%"><feDropShadow dx="0" dy="0" stdDeviation="10" flood-color="#00000061"></feDropShadow></filter><path d="M0 0 0,615.5479110544547 C 54.43288992382587,585.2712187673897 171.35791069231925,524.8674929032103 272.1644496191293,464.1644496191293 C 372.97098854593935,403.46140633504837 436.40207865305246,404.865584557876 504.03269463405013,312.03269463405013 C 571.6633106150479,219.19980471022427 589.0605625461042,62.40653892681003 610.3175295241177,0 L0 0Z" fill="none" stroke-linecap="round" filter="url(#shadow-r1)" stroke-width="1" style="transition: all 0.4s cubic-bezier(0.16, 1, 0.3, 1) 0s; fill: url(&quot;#linear-gradient-r1&quot;);"></path></g><g transform-origin="400 300" transform="scale(-1, -1)"><linearGradient id="linear-gradient-r1"><stop offset="0%" stop-color="#891231ff" stop-opacity="100%"></stop><stop offset="100%" stop-color="#972375ff" stop-opacity="100%"></stop></linearGradient><filter id="shadow-r1" x="-20%" width="150%" y="-20%" height="150%"><feDropShadow dx="0" dy="0" stdDeviation="10" flood-color="#00000061"></feDropShadow></filter><path d="M0 0 0,637.8196167804301 C 53.23917650803924,601.8948699323834 180.98661538194864,538.9505387380348 266.1958825401962,458.1958825401962 C 351.4051496984437,377.4412263423577 373.1702165051177,325.6855122992769 426.04633579123765,234.04633579123765 C 478.9224550773576,142.4071592831984 509.6704503348842,46.809267158247536 530.5764789707958,0 L0 0Z" fill="none" stroke-linecap="round" filter="url(#shadow-r1)" stroke-width="1" style="transition: all 0.4s cubic-bezier(0.16, 1, 0.3, 1) 0s; fill: url(&quot;#linear-gradient-r1&quot;);"></path></g></svg>