<svg viewBox="0 0 1600 1080" height="1080" width="1600" xmlns="http://www.w3.org/2000/svg" version="1.1"><g transform-origin="center" transform="scale(1, 1) rotate(0)"><rect x="0" y="0" width="1600" height="1080" fill="#797979ff"></rect><linearGradient id="linear-gradient-re"><stop offset="0%" stop-color="#191313ff" stop-opacity="100%"></stop><stop offset="100%" stop-color="#c0136eff" stop-opacity="100%"></stop></linearGradient><filter id="shadow-re" x="0" width="100%" y="-20%" height="150%"><feDropShadow dx="27" dy="-5" stdDeviation="19" flood-color="#02000261"></feDropShadow></filter><path d="M0 0 0,384.22901218766344 C 26.666666666666668,383.8957981325313 80,378.0631483061425 133.33333333333334,382.5629419120028 C 186.66666666666669,387.06273551786313 213.33333333333337,407.45151671592146 266.6666666666667,406.7279802169651 C 320,406.0044437180087 346.6666666666667,388.3991159789823 400,378.94525941722094 C 453.33333333333337,369.49140285545957 480,375.5696443566866 533.3333333333334,359.4586974081583 C 586.6666666666667,343.34775045963 613.3333333333334,307.1686909207329 666.6666666666667,298.39052467457947 C 720.0000000000001,289.61235842842603 746.6666666666666,311.1241720183007 800,315.56786617739124 C 853.3333333333334,320.01156033648175 880,312.3952385080978 933.3333333333334,320.6089954700321 C 986.6666666666667,328.82275243196636 1013.3333333333334,349.2031418051943 1066.6666666666667,356.6366509870626 C 1120,364.07016016893084 1146.6666666666667,362.8574058708921 1200,357.7765413793735 C 1253.3333333333333,352.6956768878549 1280.0000000000002,329.93181065646934 1333.3333333333335,331.23232852946967 C 1386.6666666666667,332.53284640247 1413.3333333333335,360.4821109624207 1466.6666666666667,364.27913074437527 C 1520,368.07615052632985 1573.3333333333333,353.0297681002691 1600,350.21742743924256 L1600 1080 L0 1080Z" fill="none" stroke-linecap="round" filter="url(#shadow-re)" stroke-width="1" style="transition: all 0.4s cubic-bezier(0.16, 1, 0.3, 1) 0s; fill: url(&quot;#linear-gradient-re&quot;);"></path><path d="M0 0 0,489.9038347043718 C 26.666666666666668,496.0929051209738 80,521.7757357720161 133.33333333333334,520.8491867873818 C 186.66666666666669,519.9226378027474 213.33333333333337,497.37754358251266 266.6666666666667,485.27108978119986 C 320,473.16463597988707 346.6666666666667,480.94833244778835 400,460.3169177808178 C 453.33333333333337,439.68550311384723 480,393.35519230140994 533.3333333333334,382.114016446347 C 586.6666666666667,370.8728405912841 613.3333333333334,398.4205165801135 666.6666666666667,404.11103850550325 C 720.0000000000001,409.801560430893 746.6666666666666,400.0482234991466 800,410.5666260732959 C 853.3333333333334,421.08502864744514 880,447.1838213240479 933.3333333333334,456.7030513762496 C 986.6666666666667,466.2222814284513 1013.3333333333334,464.6692481466755 1066.6666666666667,458.16277633430434 C 1120,451.6563045219332 1146.6666666666667,422.50527043662345 1200,424.1706923143938 C 1253.3333333333333,425.8361141921642 1280.0000000000002,461.62748440866665 1333.3333333333335,466.4898857231562 C 1386.6666666666667,471.35228703764574 1413.3333333333335,458.477330183275 1466.6666666666667,448.4826988868415 C 1520,438.488067590408 1573.3333333333333,422.90992317015923 1600,416.5167292409887 L1600 1080 L0 1080Z" fill="none" stroke-linecap="round" filter="url(#shadow-re)" stroke-width="1" style="transition: all 0.4s cubic-bezier(0.16, 1, 0.3, 1) 0s; fill: url(&quot;#linear-gradient-re&quot;);"></path><path d="M0 0 0,634.9703933577985 C 26.66666666666667,626.2956987152745 80,606.3559711860431 133.33333333333334,591.5969201451788 C 186.66666666666669,576.8378691043146 213.33333333333337,586.3270205388901 266.6666666666667,561.1751381534773 C 320,536.0232557680645 346.66666666666663,479.541693682087 400,465.8375082181146 C 453.33333333333337,452.13332275414217 480,485.7168611419263 533.3333333333334,492.6542108336153 C 586.6666666666667,499.5915605253043 613.3333333333334,487.70120849019537 666.6666666666667,500.5242566765596 C 720.0000000000001,513.3473048629239 746.6666666666666,545.1645008429016 800,556.7694517654367 C 853.3333333333334,568.3744026879717 880,566.4810904224589 933.3333333333334,558.5490112892352 C 986.6666666666667,550.6169321560114 1013.3333333333334,515.0787302167776 1066.6666666666667,517.109056099318 C 1120,519.1393819818584 1146.6666666666667,562.7728578549127 1200,568.7006407019371 C 1253.3333333333333,574.6284235489616 1280.0000000000002,558.9324857887253 1333.3333333333335,546.7479703344404 C 1386.6666666666667,534.5634548801556 1413.3333333333335,500.9737712763871 1466.6666666666667,507.77806343051293 C 1520,514.5823555846388 1573.3333333333333,566.1711575701584 1600,580.7694311050698 L1600 1080 L0 1080Z" fill="none" stroke-linecap="round" filter="url(#shadow-re)" stroke-width="1" style="transition: all 0.4s cubic-bezier(0.16, 1, 0.3, 1) 0s; fill: url(&quot;#linear-gradient-re&quot;);"></path><path d="M0 0 0,697.9227505091577 C 26.666666666666668,690.7448721125535 80,691.7057086299918 133.33333333333334,662.0333585261367 C 186.66666666666669,632.3610084222815 213.33333333333337,565.728195062764 266.6666666666667,549.5609999898821 C 320,533.3938049170002 346.6666666666667,573.0132057037391 400,581.1973831617273 C 453.3333333333333,589.3815606197155 480,575.3541934812441 533.3333333333334,590.4818872798234 C 586.6666666666667,605.6095810784026 613.3333333333334,643.1451803617551 666.6666666666667,656.8358521546237 C 720.0000000000001,670.5265239474923 746.6666666666666,668.2929326982423 800,658.935246244166 C 853.3333333333334,649.5775597900897 880,607.6521899969317 933.3333333333334,610.0474198842421 C 986.6666666666667,612.4426497715525 1013.3333333333334,663.9182313011587 1066.6666666666667,670.9113956807181 C 1120,677.9045600602775 1146.6666666666667,659.3876413941756 1200,645.0132417820394 C 1253.3333333333333,630.6388421699032 1280.0000000000002,591.0121917070821 1333.3333333333335,599.0393976200372 C 1386.6666666666667,607.0666035329923 1413.3333333333335,665.9250539157912 1466.6666666666667,685.1492713468149 C 1520,704.3734887778386 1573.3333333333333,693.1582420894875 1600,695.1604847751557 L1600 1080 L0 1080Z" fill="none" stroke-linecap="round" filter="url(#shadow-re)" stroke-width="1" style="transition: all 0.4s cubic-bezier(0.16, 1, 0.3, 1) 0s; fill: url(&quot;#linear-gradient-re&quot;);"></path><path d="M0 0 0,762.8915788987962 C 26.66666666666667,736.9701614713669 80,651.914696443441 133.33333333333334,633.2844917616496 C 186.66666666666669,614.6542870798582 213.33333333333337,660.3095502655518 266.6666666666667,669.7405554898394 C 320,679.1715607141269 346.66666666666663,663.0071784722929 400,680.4395178830872 C 453.33333333333337,697.8718572938815 480,741.1258598806088 533.3333333333334,756.9022525438107 C 586.6666666666667,772.6786452070127 613.3333333333334,770.1047749740258 666.6666666666667,759.3214811990969 C 720.0000000000001,748.538187424168 746.6666666666666,700.2256497770858 800,702.9857836691663 C 853.3333333333334,705.7459175612468 880,765.0636047474047 933.3333333333334,773.1221506594991 C 986.6666666666667,781.1806965715934 1013.3333333333334,759.8427969996259 1066.6666666666667,743.2785132296383 C 1120,726.7142294596507 1146.6666666666667,681.0506121377771 1200,690.3007318095614 C 1253.3333333333333,699.5508514813457 1280.0000000000002,767.3761590217922 1333.3333333333335,789.52911158856 C 1386.6666666666667,811.6820641553278 1413.3333333333335,812.8266684341431 1466.6666666666667,801.0654946434001 C 1520,789.3043208526572 1573.3333333333333,744.7916930365562 1600,730.7232426348453 L1600 1080 L0 1080Z" fill="none" stroke-linecap="round" filter="url(#shadow-re)" stroke-width="1" style="transition: all 0.4s cubic-bezier(0.16, 1, 0.3, 1) 0s; fill: url(&quot;#linear-gradient-re&quot;);"></path></g></svg>