<svg viewBox="0 0 800 600" height="600" width="800" xmlns="http://www.w3.org/2000/svg" version="1.1"><g transform-origin="center" transform="scale(1, 1) rotate(0)"><rect x="0" y="0" width="800" height="600" fill="#222223ff"></rect><linearGradient id="linear-gradient-r7"><stop offset="0%" stop-color="#191313ff" stop-opacity="100%"></stop><stop offset="100%" stop-color="#ff0092ff" stop-opacity="100%"></stop></linearGradient><filter id="shadow-r7" x="0" width="100%" y="-20%" height="150%"><feDropShadow dx="0" dy="0" stdDeviation="10" flood-color="#00000061"></feDropShadow></filter><path d="M0 0 0,368.70460765482864 C 13.333333333333334,368.38485679384326 40,362.7878695867025 66.66666666666667,367.1058533499018 C 93.33333333333334,371.4238371131011 106.66666666666667,390.9888291718439 133.33333333333334,390.29452647082513 C 160,389.6002237698064 173.33333333333331,372.70622240407397 200,363.63433984480804 C 226.66666666666669,354.5624572855421 240,360.395113271568 266.6666666666667,344.9351136744954 C 293.33333333333337,329.4751140774228 306.6666666666667,294.75783472191546 333.33333333333337,286.33434185944503 C 360.00000000000006,277.9108489969746 373.3333333333333,298.5534984013998 400,302.8176493621432 C 426.6666666666667,307.08180032288664 440,299.77320866938686 466.6666666666667,307.65509666316217 C 493.33333333333337,315.5369846569375 506.6666666666667,335.09392395447946 533.3333333333334,342.2270893310197 C 560,349.36025470756 573.3333333333334,348.19650058317933 600,343.32092354586354 C 626.6666666666666,338.44534650854774 640.0000000000001,316.6012324481272 666.6666666666667,317.84920414444065 C 693.3333333333334,319.0971758407541 706.6666666666667,345.9171771861613 733.3333333333334,349.5607820274309 C 760,353.20438686870045 786.6666666666666,338.76593908611693 800,336.0672283507884 L800 600 L0 600Z" fill="none" stroke-linecap="round" filter="url(#shadow-r7)" stroke-width="1" style="transition: all 0.4s cubic-bezier(0.16, 1, 0.3, 1) 0s; fill: url(&quot;#linear-gradient-r7&quot;);"></path><path d="M0 0 0,461.56583900718647 C 13.333333333333336,467.39690885630756 40,491.5941419412072 66.66666666666667,490.7211882527918 C 93.33333333333334,489.8482345643764 106.66666666666669,468.6072386951807 133.33333333333334,457.2010705651095 C 160,445.7949024350383 173.33333333333334,453.1283587917375 200,433.69034760243574 C 226.66666666666666,414.25233641313395 240,370.6019559369113 266.6666666666667,360.0110146186005 C 293.33333333333337,349.4200733002897 306.6666666666667,375.374281615795 333.33333333333337,380.73564101088175 C 360.00000000000006,386.0970004059685 373.3333333333333,376.9078354615098 400,386.8178115940343 C 426.6666666666667,396.7277877265588 440,421.3169219310706 466.6666666666667,430.2855216735043 C 493.33333333333337,439.254121415938 506.6666666666667,437.79092178586876 533.3333333333334,431.6608103062027 C 560,425.5306988265366 573.3333333333334,398.0658770546628 600,399.6349642751739 C 626.6666666666666,401.204051495685 640.0000000000001,434.9251058188578 666.6666666666667,439.5062464087581 C 693.3333333333334,444.0873869986584 706.6666666666667,431.95716910343623 733.3333333333334,422.5406672246755 C 760,413.1241653459147 786.6666666666666,398.44712305689853 800,392.4237370149543 L800 600 L0 600Z" fill="none" stroke-linecap="round" filter="url(#shadow-r7)" stroke-width="1" style="transition: all 0.4s cubic-bezier(0.16, 1, 0.3, 1) 0s; fill: url(&quot;#linear-gradient-r7&quot;);"></path><path d="M0 0 0,591.1478500347584 C 13.333333333333336,583.0718402848889 40,564.5082549862874 66.66666666666667,550.7678012854109 C 93.33333333333334,537.0273475845344 106.66666666666669,545.8616043119071 133.33333333333334,522.445581530376 C 160,499.029558748845 173.33333333333331,446.44607715190693 200,433.6876873777558 C 226.66666666666669,420.9292976036047 240,452.19506483019023 266.6666666666667,458.6536326596203 C 293.33333333333337,465.1122004890504 306.6666666666667,454.0424622536326 333.33333333333337,465.98052652490634 C 360.00000000000006,477.91859079618007 373.3333333333333,507.5399199076618 400,518.3439540159889 C 426.6666666666667,529.1479881243159 440,527.3853429885581 466.6666666666667,520.0006970665418 C 493.33333333333337,512.6160511445254 506.6666666666667,479.5305216611984 533.3333333333334,481.4207244059071 C 560,483.3109271506158 573.3333333333334,523.9330344515541 600,529.4517107900853 C 626.6666666666666,534.9703871286164 640.0000000000001,520.3577060362325 666.6666666666667,509.0141060985625 C 693.3333333333334,497.67050616089256 706.6666666666667,466.3990178310002 733.3333333333334,472.73371110173565 C 760,479.0684043724711 786.6666666666666,527.0968001821388 800,540.6875724522397 L800 600 L0 600Z" fill="none" stroke-linecap="round" filter="url(#shadow-r7)" stroke-width="1" style="transition: all 0.4s cubic-bezier(0.16, 1, 0.3, 1) 0s; fill: url(&quot;#linear-gradient-r7&quot;);"></path></g></svg>